<?xml version="1.0" encoding="UTF-8"?>
<svg id="Layer_2" data-name="Layer 2" xmlns="http://www.w3.org/2000/svg" viewBox="0 0 50 113.38">
  <defs>
    <style>
      .cls-1 {
        fill: #fff;
        stroke: #000;
        stroke-miterlimit: 10;
      }
    </style>
  </defs>
  <g id="Instruments">
    <g id="Bass_Outline" data-name="Bass Outline">
      <path class="cls-1" d="M21.08,66.12L38.11,12.08l5.08,1.02-16.25,54.95c3.26,2.67,7.72-3.97,9.63-2.39.93.76,1.38,3.77.17,6.71-1.23,2.99-4.14,5.91-5.1,7.76-2.8,5.43,6.32,18.05-.9,26.63-7.22,8.58-15.04,6.17-20.16,4.36-5.11-1.81-10.08-4.96-10.08-14.14s10.83-17.75,12.04-20.46c.61-1.37-.71-5.41-.45-9.29.26-3.8,2.09-7.44,3.89-8.24,2.39-1.05,3.03,5.81,4.2,7.29.26.32.78.23.9-.17Z"/>
      <path class="cls-1" d="M43.19,13.1l6.27-12.05c.14-.26-.06-.57-.36-.55l-6.78.4c-.41.02-.76.3-.89.69l-3.33,10.49,5.08,1.02Z"/>
    </g>
  </g>
</svg>