<?xml version="1.0" encoding="UTF-8"?>
<svg id="Layer_2" data-name="Layer 2" xmlns="http://www.w3.org/2000/svg" viewBox="0 0 244.19 212.29">
  <defs>
    <style>
      .cls-1, .cls-2 {
        stroke: #000;
        stroke-miterlimit: 10;
      }

      .cls-1, .cls-3 {
        fill: #fff;
      }

      .cls-2 {
        fill: none;
      }

      .cls-3 {
        stroke-width: 0px;
      }
    </style>
  </defs>
  <g id="Instruments">
    <g id="Drums_Outline" data-name="Drums Outline">
      <rect class="cls-3" x="140.65" y="90.8" width="60.96" height="76.72"/>
      <line class="cls-1" x1="199.75" y1="33.36" x2="199.75" y2="89.57"/>
      <path class="cls-1" d="M202.05,168.1h-7.27c-1.38,0-2.73-.44-3.82-1.27-21.68-16.53-16.75-62.98-.36-75.14,1.21-.9,2.69-1.37,4.2-1.37h6.81"/>
      <path class="cls-1" d="M140.65,168.1h-7.27c-1.38,0-2.73-.44-3.82-1.27-21.68-16.53-16.75-62.98-.36-75.14,1.21-.9,2.69-1.37,4.2-1.37h6.81"/>
      <line class="cls-1" x1="135.66" y1="90.32" x2="199.75" y2="90.32"/>
      <line class="cls-1" x1="136.34" y1="168.1" x2="198.96" y2="168.1"/>
      <polyline class="cls-2" points="163.97 134.49 156.75 189.32 152.01 189.32 160.7 189.32"/>
      <path class="cls-2" d="M129.67,165.03s-12.86,19.41-15.8,26.18c-2.93,6.77-5.87,20.99-5.87,20.99"/>
      <path class="cls-2" d="M129.82,165.03s12.86,19.41,15.8,26.18c2.93,6.77,5.87,20.99,5.87,20.99"/>
      <line class="cls-1" x1="41.82" y1="68.66" x2="39.71" y2="184.25"/>
      <path class="cls-2" d="M3.61,191.07l36.58-45.12s.07,0,.05.03l-24.12,48.54"/>
      <line class="cls-1" x1="78.26" y1="187.37" x2="40.37" y2="145.73"/>
      <polygon class="cls-1" points="34.63 184.45 30.42 204.22 36.44 206.02 45.92 202.86 45.92 180.6 39 180.6 34.63 184.45"/>
      <path class="cls-1" d="M54.33,88.54c-.64,9.96.38,18.39,4.78,24.64,19.53-5.54,39.58-11.52,59.13-14.86,1.32-5.69.18-17.14-3.58-23.68-18.78-.49-39.08,4.87-60.33,13.89Z"/>
      <path class="cls-1" d="M54.3,93.94c20.48-8.21,41.38-13.77,61.96-14.85"/>
      <path class="cls-1" d="M55.26,106.2c20.48-8.21,42.49-13.91,63.08-14.99"/>
      <path class="cls-1" d="M80.59,57.69c-25.51.86-51.19.82-77.03,0,12.52,4,24.3,7.06,34.15,7.75l-.15,2.41h3.2v1.2h2.67v-1.43h3.08l.08-2.23c9.54-.78,21.42-3.89,33.99-7.7Z"/>
      <path class="cls-1" d="M80.59,56.14c-25.51-.86-51.19-.82-77.03,0,12.52-4,24.3-7.06,34.15-7.75l-.15-2.41h3.2v-1.2h2.67v1.43h3.08l.08,2.23c9.54.78,21.42,3.89,33.99,7.7Z"/>
      <line class="cls-1" x1="42.08" y1="55.8" x2="42.08" y2="58.19"/>
      <polyline class="cls-2" points="118.24 98.32 92.77 122.44 81.9 106.75"/>
      <line class="cls-1" x1="59.12" y1="113.18" x2="92.77" y2="122.44"/>
      <polyline class="cls-2" points="59.75 188.61 92.39 165.03 92.39 201.73"/>
      <polyline class="cls-2" points="122.93 183.38 92.39 165.03 92.39 121.69"/>
      <path class="cls-1" d="M123.44,83.2c9.36-10.65,20.98-13.91,36.48-9.74"/>
      <path class="cls-1" d="M160.01,75.86l-3.71-23.93c-13.81-5.1-25.82-1.02-37.01,7.55l4.52,25.29c2.62,10.66,38.82,1.75,36.2-8.91Z"/>
      <path class="cls-1" d="M124.46,86.25c11.66-11.08,20.5-13.39,36-9.22"/>
      <path class="cls-1" d="M184.99,33.82l16.8,22.04c-7.54,10.63-18.64,18.89-32.2,25.52l-11.21-16.02-1.83-10.05-.93-3.62s31.92-25.03,29.32-16.59c-2.46,8.02-27.76,22.57-27.76,22.57"/>
      <path class="cls-1" d="M201.79,55.86l2.64,3.2c-7.54,10.63-19,19.21-32.56,25.84l-2.28-3.52c12.33-7.44,23.25-15.82,32.2-25.52Z"/>
      <polyline class="cls-1" points="175.8 90.32 175.8 70.38 172.94 73.49 172.94 90.32"/>
      <polyline class="cls-1" points="180.09 90.32 180.09 63.37 183.59 68.34 183.59 90.3"/>
      <path class="cls-1" d="M231.99,2.07c5.65,7.63-9.63,19.86-25.5,27.38s-35.91,7.83-39.34,2.64c-3.54-5.35,10.63-17.75,27.27-24.75,16.13-6.79,35.2-8.46,37.57-5.27Z"/>
      <path class="cls-1" d="M206.97,9.88c1.56,2.11-2.66,5.48-7.04,7.56-4.58,2.17-9.92,2.16-10.86.73-.98-1.48,2.94-4.9,7.53-6.84,4.46-1.88,9.72-2.34,10.38-1.45Z"/>
      <polyline class="cls-2" points="223.37 39.92 221.93 111.39 221.93 134.49 233.71 125.84 221.93 111.39"/>
      <line class="cls-1" x1="233.71" y1="125.84" x2="243.83" y2="136.93"/>
      <line class="cls-1" x1="221.93" y1="111.39" x2="220.2" y2="113.12"/>
      <line class="cls-1" x1="210.01" y1="27.69" x2="238.18" y2="53.47"/>
      <path class="cls-1" d="M129.67,46.23c10.41-3.16,35.38-12.49,35.38-20.76s-26.63-2.56-43.03,1.2c-16.4,3.76-35.15,14.77-32.95,20.76,3.16,8.58,40.59-1.2,40.59-1.2Z"/>
      <path class="cls-1" d="M126.48,35.62c3.1-.93,10.54-3.68,10.54-6.14,0-2.46-7.92-.79-12.8.31-4.88,1.1-10.47,4.36-9.82,6.14.93,2.55,12.08-.32,12.08-.32Z"/>
      <path class="cls-1" d="M157.19,57.67c-11.77-4.9-24.12-2.02-36.93,7.24"/>
      <ellipse class="cls-1" cx="201.6" cy="129.21" rx="20.33" ry="38.89"/>
      <path class="cls-1" d="M145.63,168.1h-5.42c-11.23,0-20.33-17.41-20.33-38.89s9.1-38.89,20.33-38.89c1.57,0,3-.06,4.86,0"/>
      <line class="cls-1" x1="129.67" y1="43.85" x2="129.67" y2="189.32"/>
    </g>
  </g>
</svg>