<?xml version="1.0" encoding="UTF-8"?>
<svg id="Layer_2" data-name="Layer 2" xmlns="http://www.w3.org/2000/svg" viewBox="0 0 43.18 134.09">
  <defs>
    <style>
      .cls-1 {
        fill: #fff;
      }

      .cls-1, .cls-2 {
        stroke: #000;
        stroke-miterlimit: 10;
      }

      .cls-2 {
        fill: none;
      }
    </style>
  </defs>
  <g id="Instruments">
    <g id="Mic_Outline" data-name="Mic Outline">
      <polyline class="cls-2" points=".38 133.76 21.37 109.16 20.24 40.11 11.59 24.16"/>
      <line class="cls-1" x1="21.37" y1="109.16" x2="42.8" y2="133.76"/>
      <path class="cls-1" d="M9.49,1.07c.25-.04.51-.06.78-.06,3.34,0,6.05,3.39,6.05,7.58s-2.71,7.58-6.05,7.58c-.82,0-1.6-.2-2.31-.57"/>
      <rect class="cls-1" x="6.91" y="21.51" width="1.58" height="4.4"/>
      <rect class="cls-1" x="8.55" y="18.97" width="1.58" height="4.4"/>
      <rect class="cls-1" x="10.13" y="16.77" width=".49" height="2.72"/>
      <rect class="cls-1" x="11.09" y="16.68" width=".49" height="2.72"/>
      <rect class="cls-1" x="10.55" y="20.1" width="1.58" height="4.4"/>
      <path class="cls-1" d="M7.7,21.51C1.44,18.38-.44,15.26,2.06,12.14"/>
      <path class="cls-1" d="M3.21,13.81c-.45,1.92,1.14,4.44,5.28,7.7"/>
      <ellipse class="cls-1" cx="7.17" cy="8.08" rx="6.05" ry="7.58"/>
    </g>
  </g>
</svg>