<?xml version="1.0" encoding="UTF-8"?>
<svg id="Layer_1" data-name="Layer 1" xmlns="http://www.w3.org/2000/svg" version="1.1" viewBox="0 0 64.2 132.7">
  <defs>
    <style>
      .cls-1 {
        fill: #000;
      }

      .cls-1, .cls-2, .cls-3, .cls-4, .cls-5 {
        stroke-width: 0px;
      }

      .cls-2 {
        fill: #7a7a7a;
      }

      .cls-3 {
        fill: #916b56;
      }

      .cls-4 {
        fill: #333;
      }

      .cls-5 {
        fill: #af8468;
      }
    </style>
  </defs>
  <path class="cls-3" d="M30.3,25.1v.2h-.5v-.2l-.3-4.2c.2,0,.4-.2.5-.4,0,0,.3,4.6.3,4.6Z"/>
  <path class="cls-3" d="M31.2,24.9v.4h-.7v-.2l-.3-4.9v-.5l-.2-3.3s.1-.2.2-.2l1.1,8.8h-.1Z"/>
  <path class="cls-3" d="M33.6,16.4l-.3,3.3v.3h0c0,.1-.4,5.1-.4,5.1v.2h-.7v-.6l1.1-8.6c0,.1,0,.2.2.3h.1Z"/>
  <path class="cls-3" d="M33.8,20.8h0l-.2,4v.5h-.5v-.2l.4-4.6c0,.1.2.2.3.3Z"/>
  <path class="cls-3" d="M36.5,8.9c-.8,3.6-.6,7.1-.5,10.5v1.7c0,.4-.3.7-.5.9h0c-.6.9-.9,1.8-1.2,2.9,0,.2,0,.3,0,.5h-.6v-.5l.2-4c.2,0,.3.1.5.1.5,0,1-.4,1-1s-.4-1-1-1-.6.2-.8.4l.2-2.9c.2.1.3.2.5.2.5,0,1-.4,1-1s-.4-1-1-1-.6.2-.8.4l.4-3h.4c.5,0,1-.5,1-1s-.4-1-1-1-1,.5-1,1,.2.6.5.8l-1.6,12.7v.6h-.8v-.4l-1.1-9.1h0v-.3l-.4-3.5c.3-.2.5-.5.5-.8,0-.5-.4-1-1-1s-1,.5-1,1,.4,1,1,1,.3,0,.4,0l.4,3c-.2-.2-.4-.4-.8-.4-.6,0-1,.4-1,1s.4,1,1,1,.4,0,.6-.2l.2,2.9c-.2-.2-.5-.4-.8-.4-.6,0-1,.4-1,1s.4,1,1,1,.1,0,.2,0l.3,4.2h0c0,.1-.3.1-.3.1-.2-1.2-.7-2.3-1.5-3.3-.4-.4-.4-.6-.4-.8.1-4.5,0-8.5-.5-12.3v-.6h1.8l2-1c.7-.3,1.3-.3,2,0l1.9,1h1.1c.5,0,.5.4.5.6h0Z"/>
  <path class="cls-5" d="M29.7,25.8h0v4.6h-.3v-4.6h.4-.1Z"/>
  <path class="cls-5" d="M30.4,25.8v4.6h-.6v-4.5h.6Z"/>
  <path class="cls-5" d="M31.2,26.3v4.1h-.8v-4.6h.8v.5Z"/>
  <path class="cls-5" d="M32.1,25.8v4.6h-.7v-4.6h.7Z"/>
  <path class="cls-5" d="M32.9,25.9v4.6h-.7v-4.6h.7Z"/>
  <path class="cls-5" d="M33.5,26v4.5h-.5v-4.6h.5v.2h0Z"/>
  <path class="cls-5" d="M34.2,25.8v4.6h-.5v-4.7h.6,0Z"/>
  <polygon class="cls-5" points="29.7 30.6 29.6 34.7 29.3 34.7 29.4 30.6 29.7 30.6"/>
  <polygon class="cls-5" points="30.3 30.6 30.2 34.7 29.7 34.7 29.8 30.6 30.3 30.6"/>
  <polygon class="cls-5" points="31.2 30.6 31.2 34.7 30.4 34.7 30.4 30.6 31.2 30.6"/>
  <polygon class="cls-5" points="32 30.6 32 34.7 31.3 34.7 31.4 30.6 32 30.6"/>
  <polygon class="cls-5" points="32.9 30.6 32.9 34.7 32.2 34.7 32.2 30.6 32.9 30.6"/>
  <polygon class="cls-5" points="33.6 30.6 33.7 34.7 33.1 34.7 33.1 30.6 33.6 30.6"/>
  <polygon class="cls-5" points="34.3 30.6 34.4 34.7 33.8 34.7 33.7 30.6 34.3 30.6"/>
  <polygon class="cls-5" points="29.6 34.8 29.5 38.6 29.2 38.6 29.3 34.8 29.6 34.8"/>
  <polygon class="cls-5" points="30.2 34.8 30.2 38.6 29.7 38.6 29.7 34.8 30.2 34.8"/>
  <polygon class="cls-5" points="31.2 34.8 31.2 38.6 30.4 38.6 30.4 34.8 31.2 34.8"/>
  <polygon class="cls-5" points="32 34.8 32.1 38.6 31.3 38.6 31.3 34.8 32 34.8"/>
  <polygon class="cls-5" points="32.9 34.8 33 38.6 32.2 38.6 32.2 34.8 32.9 34.8"/>
  <polygon class="cls-5" points="33.7 34.8 33.7 38.6 33.1 38.6 33.1 34.8 33.7 34.8"/>
  <polygon class="cls-5" points="34.4 34.8 34.5 38.6 33.8 38.6 33.8 34.8 34.4 34.8"/>
  <polygon class="cls-5" points="29.5 38.7 29.4 42.3 29.1 42.3 29.2 38.7 29.5 38.7"/>
  <polygon class="cls-5" points="30.2 38.7 30.2 42.3 29.6 42.3 29.7 38.7 30.2 38.7"/>
  <polygon class="cls-5" points="31.2 38.7 31.1 42.3 30.3 42.3 30.4 38.7 31.2 38.7"/>
  <polygon class="cls-5" points="32.1 38.7 32.1 42.3 31.3 42.3 31.3 38.7 32.1 38.7"/>
  <polygon class="cls-5" points="33 38.7 33 42.3 32.2 42.3 32.2 38.7 33 38.7"/>
  <polygon class="cls-5" points="33.7 38.7 33.8 42.3 33.1 42.3 33.1 38.7 33.7 38.7"/>
  <polygon class="cls-5" points="34.5 38.7 34.5 42.3 33.9 42.3 33.8 38.7 34.5 38.7"/>
  <polygon class="cls-5" points="29.4 42.4 29.4 45.8 29 45.8 29.1 42.4 29.4 42.4"/>
  <polygon class="cls-5" points="30.2 42.4 30.1 45.8 29.5 45.8 29.6 42.4 30.2 42.4"/>
  <polygon class="cls-5" points="31.1 42.4 31.1 45.8 30.3 45.8 30.3 42.4 31.1 42.4"/>
  <polygon class="cls-5" points="32.1 42.4 32.1 45.8 31.3 45.8 31.3 42.4 32.1 42.4"/>
  <polygon class="cls-5" points="33 42.4 33 45.8 32.2 45.8 32.2 42.4 33 42.4"/>
  <polygon class="cls-5" points="33.8 42.4 33.8 45.8 33.2 45.8 33.1 42.4 33.8 42.4"/>
  <polygon class="cls-5" points="34.5 42.4 34.6 45.8 33.9 45.8 33.9 42.4 34.5 42.4"/>
  <polygon class="cls-5" points="34.6 45.9 34.7 49.1 34 49.1 33.9 45.9 34.6 45.9"/>
  <polygon class="cls-5" points="33.8 45.9 33.9 49.1 33.2 49.1 33.2 45.9 33.8 45.9"/>
  <polygon class="cls-5" points="33 45.9 33 49.1 32.2 49.1 32.2 45.9 33 45.9"/>
  <polygon class="cls-5" points="32.1 45.9 32.1 49.1 31.2 49.1 31.3 45.9 32.1 45.9"/>
  <polygon class="cls-5" points="31.1 45.9 31.1 49.1 30.2 49.1 30.3 45.9 31.1 45.9"/>
  <polygon class="cls-5" points="30.1 45.9 30.1 49.1 29.5 49.1 29.5 45.9 30.1 45.9"/>
  <polygon class="cls-5" points="29.4 45.9 29.3 49.1 28.9 49.1 29 45.9 29.4 45.9"/>
  <polygon class="cls-5" points="29.3 49.2 29.2 52.4 28.9 52.4 28.9 49.2 29.3 49.2"/>
  <polygon class="cls-5" points="30.1 49.2 30.1 52.4 29.4 52.4 29.5 49.2 30.1 49.2"/>
  <polygon class="cls-5" points="31.1 49.2 31.1 52.4 30.2 52.4 30.2 49.2 31.1 49.2"/>
  <polygon class="cls-5" points="32.1 49.2 32.1 52.4 31.2 52.4 31.2 49.2 32.1 49.2"/>
  <polygon class="cls-5" points="33 49.2 33.1 52.4 32.2 52.4 32.2 49.2 33 49.2"/>
  <polygon class="cls-5" points="33.9 49.2 33.9 52.4 33.2 52.4 33.2 49.2 33.9 49.2"/>
  <polygon class="cls-5" points="34.7 49.2 34.7 52.4 34 52.4 34 49.2 34.7 49.2"/>
  <polygon class="cls-5" points="29.2 52.5 29.2 55.4 28.8 55.4 28.9 52.5 29.2 52.5"/>
  <polygon class="cls-5" points="30.1 52.5 30 55.4 29.3 55.4 29.4 52.5 30.1 52.5"/>
  <polygon class="cls-5" points="31.1 52.5 31.1 55.4 30.2 55.4 30.2 52.5 31.1 52.5"/>
  <polygon class="cls-5" points="32.1 52.5 32.1 55.4 31.2 55.4 31.2 52.5 32.1 52.5"/>
  <polygon class="cls-5" points="33.1 52.5 33.1 55.4 32.2 55.4 32.2 52.5 33.1 52.5"/>
  <polygon class="cls-5" points="33.9 52.5 34 55.4 33.2 55.4 33.2 52.5 33.9 52.5"/>
  <polygon class="cls-5" points="34.7 52.5 34.8 55.4 34.1 55.4 34 52.5 34.7 52.5"/>
  <polygon class="cls-5" points="34.8 55.5 34.8 58.2 34.1 58.2 34.1 55.5 34.8 55.5"/>
  <polygon class="cls-5" points="34 55.5 34 58.2 33.3 58.2 33.2 55.5 34 55.5"/>
  <polygon class="cls-5" points="33.1 55.5 33.1 58.2 32.2 58.2 32.2 55.5 33.1 55.5"/>
  <polygon class="cls-5" points="32.1 55.5 32.1 58.2 31.2 58.2 31.2 55.5 32.1 55.5"/>
  <polygon class="cls-5" points="31.1 55.5 31 58.2 30.2 58.2 30.2 55.5 31.1 55.5"/>
  <polygon class="cls-5" points="30 55.5 30 58.2 29.3 58.2 29.3 55.5 30 55.5"/>
  <polygon class="cls-5" points="29.2 55.5 29.1 58.2 28.7 58.2 28.8 55.5 29.2 55.5"/>
  <polygon class="cls-5" points="29.1 58.2 29.1 60.9 28.7 60.9 28.7 58.2 29.1 58.2"/>
  <polygon class="cls-5" points="30 58.2 30 60.9 29.2 60.9 29.3 58.2 30 58.2"/>
  <polygon class="cls-5" points="31 58.2 31 60.9 30.1 60.9 30.2 58.2 31 58.2"/>
  <polygon class="cls-5" points="32.1 58.2 32.1 60.9 31.2 60.9 31.2 58.2 32.1 58.2"/>
  <polygon class="cls-5" points="33.1 58.2 33.1 60.9 32.2 60.9 32.2 58.2 33.1 58.2"/>
  <polygon class="cls-5" points="34 58.2 34 60.9 33.3 60.9 33.3 58.2 34 58.2"/>
  <polygon class="cls-5" points="34.8 58.2 34.9 60.9 34.1 60.9 34.1 58.2 34.8 58.2"/>
  <polygon class="cls-5" points="29.1 61 29 63.4 28.6 63.4 28.6 61 29.1 61"/>
  <polygon class="cls-5" points="30 61 29.9 63.4 29.2 63.4 29.2 61 30 61"/>
  <polygon class="cls-5" points="31 61 31 63.4 30.1 63.4 30.1 61 31 61"/>
  <polygon class="cls-5" points="32.1 61 32.1 63.4 31.2 63.4 31.2 61 32.1 61"/>
  <polygon class="cls-5" points="33.1 61 33.1 63.4 32.2 63.4 32.2 61 33.1 61"/>
  <polygon class="cls-5" points="34 61 34.1 63.4 33.3 63.4 33.3 61 34 61"/>
  <polygon class="cls-5" points="34.9 61 34.9 63.4 34.2 63.4 34.1 61 34.9 61"/>
  <polygon class="cls-5" points="34.9 63.5 35 65.7 34.2 65.7 34.2 63.5 34.9 63.5"/>
  <polygon class="cls-5" points="34.1 63.5 34.1 65.7 33.3 65.7 33.3 63.5 34.1 63.5"/>
  <polygon class="cls-5" points="33.1 63.5 33.2 65.7 32.3 65.7 32.2 63.5 33.1 63.5"/>
  <polygon class="cls-5" points="32.1 63.5 32.1 65.7 31.1 65.7 31.2 63.5 32.1 63.5"/>
  <polygon class="cls-5" points="31 63.5 31 65.7 30.1 65.7 30.1 63.5 31 63.5"/>
  <polygon class="cls-5" points="29.9 63.5 29.9 65.7 29.2 65.7 29.2 63.5 29.9 63.5"/>
  <polygon class="cls-5" points="29 63.5 29 65.7 28.5 65.7 28.6 63.5 29 63.5"/>
  <polygon class="cls-5" points="29 65.8 29 68 28.5 68 28.5 65.8 29 65.8"/>
  <polygon class="cls-5" points="29.9 65.8 29.9 68 29.1 68 29.2 65.8 29.9 65.8"/>
  <polygon class="cls-5" points="31 65.8 31 68 30.1 68 30.1 65.8 31 65.8"/>
  <polygon class="cls-5" points="32.1 65.8 32.1 68 31.1 68 31.1 65.8 32.1 65.8"/>
  <polygon class="cls-5" points="33.2 65.8 33.2 68 32.3 68 32.3 65.8 33.2 65.8"/>
  <polygon class="cls-5" points="34.1 65.8 34.1 68 33.3 68 33.3 65.8 34.1 65.8"/>
  <polygon class="cls-5" points="35 65.8 35 68 34.2 68 34.2 65.8 35 65.8"/>
  <polygon class="cls-5" points="35 68.1 35.1 70.1 34.3 70.1 34.2 68.1 35 68.1"/>
  <polygon class="cls-5" points="34.1 68.1 34.2 70.1 33.3 70.1 33.3 68.1 34.1 68.1"/>
  <polygon class="cls-5" points="33.2 68.1 33.2 70.1 32.3 70.1 32.3 68.1 33.2 68.1"/>
  <polygon class="cls-5" points="32.1 68.1 32.1 70.1 31.1 70.1 31.1 68.1 32.1 68.1"/>
  <polygon class="cls-5" points="31 68.1 31 70.1 30 70.1 30.1 68.1 31 68.1"/>
  <polygon class="cls-5" points="29.9 68.1 29.9 70.1 29.1 70.1 29.1 68.1 29.9 68.1"/>
  <polygon class="cls-5" points="29 68.1 28.9 70.1 28.4 70.1 28.5 68.1 29 68.1"/>
  <polygon class="cls-5" points="28.9 70.2 28.9 72.1 28.4 72.1 28.4 70.2 28.9 70.2"/>
  <polygon class="cls-5" points="29.9 70.2 29.9 72.1 29 72.1 29.1 70.2 29.9 70.2"/>
  <polygon class="cls-5" points="31 70.2 30.9 72.1 30 72.1 30 70.2 31 70.2"/>
  <polygon class="cls-5" points="32.1 70.2 32.1 72.1 31.1 72.1 31.1 70.2 32.1 70.2"/>
  <polygon class="cls-5" points="33.2 70.2 33.2 72.1 32.3 72.1 32.3 70.2 33.2 70.2"/>
  <polygon class="cls-5" points="34.2 70.2 34.2 72.1 33.4 72.1 33.3 70.2 34.2 70.2"/>
  <polygon class="cls-5" points="35.1 70.2 35.1 72.1 34.3 72.1 34.3 70.2 35.1 70.2"/>
  <polygon class="cls-5" points="35.1 72.2 35.1 74 34.3 74 34.3 72.2 35.1 72.2"/>
  <polygon class="cls-5" points="34.2 72.2 34.2 74 33.4 74 33.4 72.2 34.2 72.2"/>
  <polygon class="cls-5" points="33.2 72.2 33.2 74 32.3 74 32.3 72.2 33.2 72.2"/>
  <polygon class="cls-5" points="32.1 72.2 32.1 74 31.1 74 31.1 72.2 32.1 72.2"/>
  <polygon class="cls-5" points="30.9 72.2 30.9 74 30 74 30 72.2 30.9 72.2"/>
  <polygon class="cls-5" points="29.9 72.2 29.8 74 29 74 29 72.2 29.9 72.2"/>
  <polygon class="cls-5" points="28.9 72.2 28.9 74 28.3 74 28.4 72.2 28.9 72.2"/>
  <polygon class="cls-5" points="28.9 74.1 28.8 75.8 28.3 75.8 28.3 74.2 28.3 74.1 28.9 74.1"/>
  <polygon class="cls-5" points="29.8 74.1 29.8 75.8 29 75.8 29 74.1 29.8 74.1"/>
  <polygon class="cls-5" points="30.9 74.1 30.9 75.8 30 75.8 30 74.1 30.9 74.1"/>
  <polygon class="cls-5" points="32.1 74.1 32.1 75.8 31.1 75.8 31.1 74.1 32.1 74.1"/>
  <polygon class="cls-5" points="33.2 74.1 33.2 75.8 32.3 75.8 32.3 74.1 33.2 74.1"/>
  <polygon class="cls-5" points="34.2 74.1 34.2 75.8 33.4 75.8 33.4 74.1 34.2 74.1"/>
  <polygon class="cls-5" points="35.1 74.1 35.2 75.8 34.4 75.8 34.3 74.1 35.1 74.1"/>
  <polygon class="cls-5" points="35.2 77.4 35.2 77.6 34.4 77.6 34.4 75.9 35.2 75.9 35.2 77.4 35.2 77.4"/>
  <polygon class="cls-5" points="34.3 75.9 34.3 77.6 33.4 77.6 33.4 75.9 34.3 75.9"/>
  <polygon class="cls-5" points="33.2 75.9 33.2 77.6 32.3 77.6 32.3 75.9 33.2 75.9"/>
  <polygon class="cls-5" points="32.1 75.9 32.1 77.6 31.1 77.6 31.1 75.9 32.1 75.9"/>
  <polygon class="cls-5" points="30.9 75.9 30.9 77.6 29.9 77.6 30 75.9 30.9 75.9"/>
  <polygon class="cls-5" points="29.8 75.9 29.8 77.6 28.9 77.6 29 75.9 29.8 75.9"/>
  <polygon class="cls-5" points="28.8 75.9 28.8 77.6 28.3 77.6 28.3 75.9 28.8 75.9"/>
  <polygon class="cls-5" points="28.8 77.7 28.8 79.2 28.3 79.2 28.3 77.7 28.8 77.7"/>
  <polygon class="cls-5" points="29.8 77.7 29.8 79.2 28.9 79.2 28.9 77.7 29.8 77.7"/>
  <polygon class="cls-5" points="30.9 77.7 30.9 79.2 29.9 79.2 29.9 77.7 30.9 77.7"/>
  <polygon class="cls-5" points="32.1 77.7 32.1 79.2 31.1 79.2 31.1 77.7 32.1 77.7"/>
  <polygon class="cls-5" points="33.2 77.7 33.3 79.2 32.3 79.2 32.3 77.7 33.2 77.7"/>
  <polygon class="cls-5" points="34.3 77.7 34.3 79.2 33.4 79.2 33.4 77.7 34.3 77.7"/>
  <path class="cls-5" d="M35.2,79.2h-.9v-1.5h.8v1.3h0c0,0,.1.2.1.2Z"/>
  <polygon class="cls-5" points="35.3 79.3 35.3 80.7 34.4 80.7 34.4 79.3 35.3 79.3"/>
  <polygon class="cls-5" points="35.3 80.8 35.3 82.1 34.5 82.1 34.4 80.8 35.3 80.8"/>
  <polygon class="cls-5" points="34.3 80.8 34.4 82.1 33.4 82.1 33.4 80.8 34.3 80.8"/>
  <polygon class="cls-5" points="34.3 79.3 34.3 80.7 33.4 80.7 33.4 79.3 34.3 79.3"/>
  <rect class="cls-5" x="32.3" y="79.3" width="1" height="1.3"/>
  <polygon class="cls-5" points="32.1 79.3 32.1 80.7 31 80.7 31.1 79.3 32.1 79.3"/>
  <polygon class="cls-5" points="30.9 79.3 30.9 80.7 29.9 80.7 29.9 79.3 30.9 79.3"/>
  <polygon class="cls-5" points="29.8 79.3 29.8 80.7 28.9 80.7 28.9 79.3 29.8 79.3"/>
  <polygon class="cls-5" points="28.8 79.3 28.7 80.7 28.3 80.7 28.3 79.3 28.8 79.3"/>
  <polygon class="cls-5" points="28.7 80.8 28.7 82.1 28.3 82.1 28.3 80.8 28.7 80.8"/>
  <polygon class="cls-5" points="29.8 80.8 29.8 82.1 28.9 82.1 28.9 80.8 29.8 80.8"/>
  <polygon class="cls-5" points="30.9 80.8 30.9 82.1 29.9 82.1 29.9 80.8 30.9 80.8"/>
  <polygon class="cls-5" points="32.1 80.8 32.1 82.1 31 82.1 31 80.8 32.1 80.8"/>
  <rect class="cls-5" x="32.3" y="80.8" width="1" height="1.3"/>
  <rect class="cls-5" x="32.3" y="82.2" width="1" height="1.2"/>
  <polygon class="cls-5" points="34.4 82.2 34.4 83.4 33.4 83.4 33.4 82.2 34.4 82.2"/>
  <polygon class="cls-5" points="35.3 82.2 35.4 83.4 34.5 83.4 34.5 82.2 35.3 82.2"/>
  <polygon class="cls-5" points="28.7 82.2 28.7 83.4 28.3 83.4 28.3 82.2 28.7 82.2"/>
  <polygon class="cls-5" points="28.7 83.5 28.7 84.5 28.3 84.5 28.3 83.5 28.7 83.5"/>
  <polygon class="cls-5" points="28.6 85.2 28.6 85.6 28.3 85.6 28.3 85.2 28.6 85.2"/>
  <rect class="cls-5" x="28.3" y="84.6" width=".3" height=".4"/>
  <rect class="cls-5" x="28.8" y="84.6" width=".9" height=".4"/>
  <rect class="cls-5" x="28.8" y="85.2" width=".9" height=".4"/>
  <polygon class="cls-5" points="30.9 85.2 30.9 85.6 29.9 85.6 29.9 85.2 30.9 85.2"/>
  <polygon class="cls-5" points="30.9 84.6 30.9 85 29.9 85 29.9 84.6 30.9 84.6"/>
  <rect class="cls-5" x="31" y="85.2" width="1.1" height=".4"/>
  <polygon class="cls-5" points="32.2 84.6 32.2 85 31 85 31 84.6 32.2 84.6"/>
  <rect class="cls-5" x="32.3" y="84.6" width="1" height=".4"/>
  <rect class="cls-5" x="32.3" y="85.2" width="1" height=".4"/>
  <polygon class="cls-5" points="34.4 85.2 34.4 85.6 33.5 85.6 33.5 85.2 34.4 85.2"/>
  <polygon class="cls-5" points="34.4 84.6 34.4 85 33.4 85 33.4 84.6 34.4 84.6"/>
  <polygon class="cls-5" points="35.4 84.6 35.4 85 34.5 85 34.5 84.6 35.4 84.6"/>
  <polygon class="cls-5" points="35.4 85.2 35.4 85.6 34.5 85.6 34.5 85.2 35.4 85.2"/>
  <path class="cls-1" d="M45.7,98.5c2.9,3.8,7,9,6.6,14.8-.3,4.7-2.1,8.7-5.3,11.6-3.6,3.4-8.9,5.1-15.5,5.1s-11.6-1.6-15.3-4.7c-2.9-2.5-4.8-5.8-5.2-9.4-1-8.4,3-12.8,5.9-16,1.6-1.8,2.9-3.3,3.1-4.9.2-2.6-.7-5.1-1.5-7.2-.6-1.8-1.2-3.4-1.1-4.9.2-3.5,4.1-8.2,10.8-8.3v-4.4h.1l1.1-44.2h0v-.3c-.1-1.2-.6-2.3-1.5-3.4-.4-.4-.4-.6-.4-1v-.7h-.4v.3c0,0,0,.4-.3.4h-.9c-.2,0-.2-.4-.2-.5v-1.5c0-.2.2-.3.3-.3h.8c.2,0,.3.2.4.3h0v.6h.4v-3.5h-.5v.3s0,.4-.3.4h-.9c-.2,0-.2-.4-.2-.5v-1.5c0-.2.2-.3.3-.3h.8c.2,0,.3.2.4.3h0v.6h.4c0-1.3-.1-2.5-.2-3.8h-.5v.3s0,.4-.3.4h-.9c-.2,0-.2-.4-.2-.5v-1.5c0-.2.2-.3.3-.3h.8c.2,0,.3.2.4.3h0v.6h.4c0-.7-.1-1.3-.2-2v-.8c.1-.1.3,0,.4,0h1.6l2-1c.7-.3,1.5-.3,2.2,0l1.9,1h1.1c.4,0,.7.3.7.8-.2.7-.3,1.4-.4,2.1h.4v-.6c0-.1.2-.3.4-.3h.8s.3,0,.3.3v1.5c0,.1,0,.4-.2.5h-.9c-.2,0-.3-.3-.3-.4v-.3h-.5c0,1.2-.2,2.5-.2,3.7h.5v-.6c0-.1.2-.3.4-.3h.8c0,0,.3.1.3.3v1.5c0,.1,0,.4-.2.5h-.9c-.2,0-.3-.3-.3-.4v-.3h-.5v3.5h.3v-.6c0-.1.2-.3.4-.3h.8c0,0,.3.1.3.3v1.5c0,.1,0,.4-.2.5h-.9c-.2,0-.3-.3-.3-.4v-.3h-.3v.6c0,.5-.3.8-.5,1h0c-.6.9-.8,1.7-1.1,2.9,0,.1,0,.3,0,.5l1,52v1.7c0,1.2.5,2.3,1.1,3.1,1.1,1.3,2.6,1.9,4.2,1.6,1.9-.3,3.5-1.9,4.4-4.3h0c0,0,0,0,0,0,0,0,1.5,1.6,1,4.5-.2,1.2-.9,2.6-1.5,4.2-.9,2.1-1.9,4.2-1.8,5.9,0,1,1.3,2.5,2.7,4.4l-.5-.2ZM52.1,113.2c.4-5.7-3.6-10.9-6.5-14.6-1.5-1.9-2.7-3.5-2.8-4.5-.2-1.7.8-3.9,1.8-6,.7-1.5,1.3-2.9,1.5-4.1.4-2.3-.5-3.8-.9-4.2-.9,2.4-2.5,3.9-4.5,4.3-1.6.3-3.3-.4-4.4-1.7-.4-.5-.7-1.1-.9-1.8v4.4h1.5c.4,0,.7.3.7.7v4.4c0,.4-.3.7-.7.7h-2.4v7.8h2.6c.3,0,.5.2.5.6v4.8c0,.3-.2.5-.5.5h-2.4v1.4h.9c.2,0,.4.2.4.4h0c.2-.2.4-.2.7-.2s.5,0,.6.3c.3.4.3,1,0,1.3-.2,0-.4.2-.6.2s0,0,0,0c-.3,0-.5,0-.6-.3h0c0,.3-.2.5-.4.5h-.8v3.9h.8c.2,0,.4.2.4.4h0c.2-.2.5-.5.9-.5.6,0,1.1.5,1.1,1.1s-.5,1.1-1.1,1.1-.7-.2-.9-.5v.2c0,.2-.2.4-.4.4h-7.9c-.2,0-.4-.2-.4-.4h0c-.2.2-.5.4-.9.4-.6,0-1.1-.5-1.1-1.1s.5-1.1,1.1-1.1.7.2.9.5h0c0-.2.2-.4.4-.4h.4v-3.9h-.4c-.2,0-.4-.2-.4-.4h-.1c-.2,0-.4.2-.6.2s-.6,0-.7-.4c-.3-.4-.3-1,.1-1.3.2,0,.4-.2.6-.2s.5,0,.7.3h0c0-.3.2-.5.4-.5h.5v-1.4h-1.8c-.3,0-.6-.2-.6-.5v-4.8c0-.3.2-.6.6-.6h1.9v-7.8c.1,0-1.8,0-1.8,0-.4,0-.7-.3-.7-.7v-4.4c0-.4.3-.7.7-.7h1.5v-10.3c-6.6,0-10.4,4.7-10.6,8.1,0,1.4.5,3.1,1.1,4.8.8,2.2,1.7,4.6,1.5,7.3-.1,1.7-1.5,3.3-3.1,5.1-3,3.3-6.8,7.5-5.8,15.8.7,6.4,6.5,13.9,20.3,13.9s19.9-6.2,20.6-16.5h0ZM38,11.9v-1.5s0-.1,0-.2h-.8s0,0,0,.1v.7h-.6v.4h.7v.7h.9v-.3h0ZM37.8,16.4v-1.4s0-.1-.2-.2h-.8s0,0,0,.1v.7h-.6v.4h.7v.5s0,.2,0,.2h.9s0-.1,0-.3ZM37.8,20.7v-1.4c0-.1,0-.2-.2-.2h-.8s0,0,0,.1v.7h-.5v.4h.5v.5s0,.2,0,.2h.9v-.3h0ZM37.5,107c0-.2,0-.4-.2-.5,0,0-.3-.2-.5-.3h0c-.2,0-.3,0-.5.2-.3.3-.4.7,0,1.1s.3.2.5.3c.2,0,.4,0,.5-.2.2,0,.2-.3.3-.5h0ZM37.5,103.9v-4.8c0-.2-.2-.4-.3-.4h-2.4v.4h1.1c.3,0,.5.2.5.5v3.6c0,.3-.2.5-.5.5h-1v.5h2.4c.2,0,.3-.2.3-.4h0ZM37.5,90v-4.4c0-.3-.2-.5-.5-.5h-1.4v.4h.2c.3,0,.5.2.5.5v3.5c0,.3-.2.5-.5.5h-1.2v.5h2.5c.3,0,.5-.2.5-.5h0ZM37.9,112.9c0-.5-.4-.9-.9-.9s-.9.4-.9.9.4.9.9.9.9-.4.9-.9ZM36,19.4c0-3.4-.3-7,.5-10.5,0-.2,0-.6-.5-.6h-1.1l-1.9-1c-.7-.3-1.3-.3-2,0l-2,1h-1.8v.6c.4,3.8.6,7.8.5,12.3,0,.3,0,.4.4.8.9,1,1.4,2.1,1.5,3.3h.3c0-.1-.3-4.4-.3-4.4h-.2c-.6,0-1-.4-1-1s.4-1,1-1,.6.2.8.4l-.2-2.9c-.2.1-.4.2-.6.2-.6,0-1-.4-1-1s.4-1,1-1,.6.1.8.4l-.4-3h-.4c-.6,0-1-.5-1-1s.4-1,1-1,1,.5,1,1-.2.6-.5.8l.4,3.5v.3c0,.1,0,0,0,0l1.1,9.1v.4h.8v-.6l1.6-12.7c-.3-.2-.5-.5-.5-.8,0-.5.4-1,1-1s1,.5,1,1-.4,1-1,1-.3,0-.4,0l-.4,3c.2-.2.5-.4.8-.4.5,0,1,.4,1,1s-.4,1-1,1-.4,0-.5-.2l-.2,2.9c.2-.2.4-.4.8-.4s1,.4,1,1-.4,1-1,1-.3,0-.5-.1l-.2,4v.5h.6c0-.2,0-.3,0-.5.3-1.2.6-2,1.2-2.9h0c.2-.2.5-.5.5-.9v-1.7h0ZM36.1,103.2v-3.6c0-.2,0-.3-.3-.3h-1v4.2h1c.2,0,.3,0,.3-.3ZM36.1,89.5v-3.5c0-.2,0-.3-.3-.3h-.2v2.6s-.2,0-.3,0h-.7v1.3h1.2c.2,0,.3,0,.3-.3h0ZM35.8,113.6v-1.4c0,0,0-.2-.2-.2h-7.9c-.1,0-.2,0-.2.2v1.4c0,0,0,.2.2.2h7.9c0,0,.2,0,.2-.2ZM35.8,107.6v-1.4c0,0,0-.2-.2-.2h-.8v1.8h.8c0,0,.2,0,.2-.2ZM35.5,88.1v-2.3h-1v2.6h.9c.1,0,0,0,0-.2h0ZM35.4,85.6v-.4h-.9v.4h.9ZM35.4,85v-.4h-.9v.4h.9ZM35.4,84.5v-1.1h-.9v1.1h.9ZM35.4,83.4v-1.2h-.9v1.2h.9ZM35.3,82.1v-1.3h-.9v1.3h.9ZM35.3,80.7v-1.3h-.9v1.3h.9ZM35.2,79.2h0v-1.5h-.9v1.5h.9ZM35.2,77.6v-.2h0v-1.5h-.8v1.7h.9-.1ZM35.2,75.8v-1.8h-.9v1.8h.9ZM35.1,74v-1.8h-.8v1.8h.8ZM35.1,72.1v-2h-.8v2h.8ZM34.3,12c.4,0,.8-.4.8-.8s-.4-.8-.8-.8-.8.4-.8.8.4.8.8.8ZM34.3,16.5c.4,0,.8-.4.8-.8s-.4-.8-.8-.8-.8.4-.8.8.4.8.8.8ZM34.3,20.8c.4,0,.8-.4.8-.8s-.4-.8-.8-.8-.8.3-.8.8.4.8.8.8ZM35.1,70.1v-2h-.8v2h.8ZM35,68v-2.2h-.8v2.2h.8ZM35,65.7v-2.2h-.8v2.2h.8ZM34.9,63.4v-2.4h-.8v2.4h.8ZM34.9,60.9v-2.6h-.8v2.6h.8ZM34.8,58.2v-2.7h-.8v2.7h.8ZM34.8,55.4v-2.9h-.8v2.9h.8ZM34.8,111.8v-3.9h-1.2v3.9h1.2ZM34.7,52.4v-3.2h-.8v3.2h.8ZM34.7,107.8v-1.8h-1.1v1.8h1.1ZM34.7,105.8v-1.4h-1.1v1.4h1.1ZM34.7,104.2v-.5h-1.1v.5h1.1ZM34.7,49.1v-3.2h-.7v3.2h.7ZM34.7,103.5v-4.2h-1.1v4.2h1.1ZM34.6,45.8v-3.4h-.7v3.4h.7ZM34.6,99.1v-.4h-1v.4h1ZM34.6,98.5v-7.8h-1.1v7.8h1.1ZM34.5,42.3v-3.6h-.7v3.6h.7ZM34.5,90.5v-.5h-1v.5h1ZM34.5,38.6v-3.8h-.7v3.8h.7ZM34.5,89.8v-1.3h-1v1.3h1ZM34.4,88.3v-2.6h-1v2.6h1ZM34.4,85.6v-.4h-.9v.4h.9ZM34.4,85v-.4h-.9v.4h.9ZM34.4,34.7v-4.1h-.7v4.1h.7ZM34.4,84.5v-1.1h-1v1.1h1ZM34.4,83.4v-1.2h-.9v1.2h.9ZM34.4,82.1v-1.3h-.9v1.3h.9ZM34.3,80.7v-1.3h-.9v1.3h.9ZM34.3,30.4v-4.6h-.7v4.6h.7ZM34.3,79.2v-1.5h-.9v1.5h.9ZM34.3,77.6v-1.7h-.9v1.7h.9ZM34.2,75.8v-1.8h-.9v1.8h.9ZM34.2,74v-1.8h-.9v1.8h.9ZM34.2,72.1v-2h-.9v2h.9ZM34.2,70.1v-2h-.8v2h.8ZM34.1,68v-2.2h-.8v2.2h.8ZM34.1,65.7v-2.2h-.8v2.2h.8ZM34.1,63.4v-2.4h-.8v2.4h.8ZM34,60.9v-2.6h-.8v2.6h.8ZM34,58.2v-2.7h-.8v2.7h.8ZM34,55.4v-2.9h-.7v2.9h.7ZM33.9,52.4v-3.2h-.7v3.2h.7ZM33.9,49.1v-3.2h-.7v3.2h.7ZM33.8,45.8v-3.4h-.7v3.4h.7ZM33.8,42.3v-3.6h-.6v3.6h.6ZM33.7,20.8h0c0,0-.2-.2-.3-.3l-.4,4.6v.2h.5v-.5s.2-4,.2-4ZM33.7,38.6v-3.8h-.6v3.8h.6ZM33.7,34.7v-4.1h-.6v4.1h.6ZM33.4,19.7l.3-3.3c0,0-.2-.2-.2-.3l-1.1,8.6v.6h.7v-.2l.4-5h0v-.4h-.1ZM33.6,30.4v-4.7h-.5v4.6h.5ZM33.5,111.8v-3.9h-1.1v3.9h1.1ZM33.5,107.8v-1.8h-1.1v1.8h1.1ZM33.4,105.8v-1.4h-1.1v1.4h1.1ZM33.4,104.2v-.5h-1.1v.5h1.1ZM33.4,103.5v-4.2h-1.1v4.2h1.1ZM33.4,99.1v-.4h-1.1v.4h1.1ZM33.4,98.5v-7.8h-1.1v7.8h1.1ZM33.3,90.5v-.5h-1v.5h1ZM33.3,89.8v-1.3h-1v1.3h1ZM33.3,88.3v-2.6h-1v2.6h1ZM33.3,85.6v-.4h-1v.4h1ZM33.3,85v-.4h-1v.4h1ZM33.3,84.5v-1.1h-1v1.1h1ZM33.3,83.4v-1.2h-1v1.2h1ZM33.3,82.1v-1.3h-1v1.3h1ZM33.3,80.7v-1.3h-1v1.3h1ZM33.3,79.2v-1.5h-1v1.5h1ZM33.2,77.6v-1.7h-1v1.7h1ZM33.2,75.8v-1.8h-1v1.8h1ZM33.2,74v-1.8h-.9v1.8h.9ZM33.2,72.1v-2h-.9v2h.9ZM33.2,70.1v-2h-.9v2h.9ZM33.2,68v-2.2h-.9v2.2h.9ZM33.2,65.7v-2.2h-.9v2.2h.9ZM33.1,63.4v-2.4h-.9v2.4h.9ZM33.1,60.9v-2.6h-.9v2.6h.9ZM33.1,58.2v-2.7h-.9v2.7h.9ZM33.1,55.4v-2.9h-.9v2.9h.9ZM33.1,52.4v-3.2h-.8v3.2h.8ZM33,49.1v-3.2h-.8v3.2h.8ZM33,45.8v-3.4h-.8v3.4h.8ZM33,42.3v-3.6h-.8v3.6h.8ZM33,38.6v-3.8h-.8v3.8h.8ZM32.9,34.7v-4.1h-.8v4.1h.8ZM32.9,30.4v-4.6h-.7v4.6h.7ZM32.2,111.8v-3.9h-1.3v3.9h1.3ZM32.2,107.8v-1.8h-1.3v1.8h1.3ZM32.2,105.8v-1.4h-1.3v1.4h1.3ZM32.2,104.2v-.5h-1.3v.5h1.3ZM32.2,103.5v-4.2h-1.2v4.2h1.2ZM32.2,99.1v-.4h-1.2v.4h1.2ZM32.2,98.5v-7.8h-1.2v7.8h1.2ZM32.2,90.5v-.5h-1.2v.5h1.2ZM32.2,89.8v-1.3h-1.2v1.3h1.2ZM32.2,88.3v-2.6h-1.1v2.6h1.1ZM32.2,85.6v-.4h-1.1v.4h1.1ZM32.2,85v-.4h-1.1v.4h1.1ZM32.2,84.5v-1.1h-1.1v1.1h1.1ZM32.1,83.4v-1.2h-1.1v1.2h1.1ZM32.1,82.1v-1.3h-1.1v1.3h1.1ZM32.1,80.7v-1.3h-1.1v1.3h1.1ZM32.1,79.2v-1.5h-1.1v1.5h1.1ZM32.1,77.6v-1.7h-1.1v1.7h1.1ZM32.1,75.8v-1.8h-1.1v1.8h1.1ZM32.1,74v-1.8h-1v1.8h1ZM32.1,72.1v-2h-1v2h1ZM32.1,70.1v-2h-1v2h1ZM32.1,68v-2.2h-1v2.2h1ZM32.1,65.7v-2.2h-1v2.2h1ZM32.1,63.4v-2.4h-.9v2.4h.9ZM32.1,60.9v-2.6h-.9v2.6h.9ZM32.1,58.2v-2.7h-.9v2.7h.9ZM32.1,55.4v-2.9h-.9v2.9h.9ZM32.1,52.4v-3.2h-.8v3.2h.8ZM32.1,49.1v-3.2h-.8v3.2h.8ZM32.1,45.8v-3.4h-.8v3.4h.8ZM32,26.3v-.5h-.7v4.6h.6v-4.1h.1ZM32.1,42.3v-3.6h-.8v3.6h.8ZM32.1,38.6v-3.8h-.7v3.8h.7ZM32,34.7v-4.1h-.7v4.1h.7ZM31.2,30.4v-4.6h-.7v4.6h.7ZM31.2,34.7v-4.1h-.7v4.1h.7ZM31.2,38.6v-3.8h-.8v3.8h.8ZM31.2,25.3v-.4l-1.1-8.8s0,.2-.2.2l.2,3.3v.5l.3,4.9v.2h.8ZM31.1,42.3v-3.6h-.8v3.6h.8ZM31.1,45.8v-3.4h-.8v3.4h.8ZM31.1,49.1v-3.2h-.8v3.2h.8ZM31.1,52.4v-3.2h-.8v3.2h.8ZM31.1,55.4v-2.9h-.8v2.9h.8ZM31,58.2v-2.7h-.8v2.7h.8ZM31,60.9v-2.6h-.9v2.6h.9ZM31,63.4v-2.4h-.9v2.4h.9ZM31,65.7v-2.2h-.9v2.2h.9ZM31,68v-2.2h-.9v2.2h.9ZM31,70.1v-2h-.9v2h.9ZM30.9,72.1v-2h-.9v2h.9ZM30.9,74v-1.8h-.9v1.8h.9ZM30.9,75.8v-1.8h-.9v1.8h.9ZM30.9,77.6v-1.7h-.9v1.7h.9ZM30.9,79.2v-1.5h-1v1.5h1ZM30.9,80.7v-1.3h-1v1.3h1ZM30.9,82.1v-1.3h-1v1.3h1ZM30.9,83.4v-1.2h-1v1.2h1ZM30.9,84.5v-1.1h-1v1.1h1ZM30.9,85v-.4h-1v.4h1ZM30.9,85.6v-.4h-1v.4h1ZM30.8,88.3v-2.6h-1v2.6h1ZM30.8,89.8v-1.3h-1v1.3h1ZM30.8,90.5v-.5h-1v.5h1ZM30.8,98.5v-7.8h-1v7.8h1ZM30.8,99.1v-.4h-1.1v.4h1.1ZM30.8,103.5v-4.2h-1v4.2h1ZM30.7,104.2v-.5h-1.1v.5h1.1ZM30.7,105.8v-1.4h-1.1v1.4h1.1ZM30.7,107.8v-1.8h-1.1v1.8h1.1ZM30.7,111.8v-3.9h-1.1v3.9h1.1ZM30.3,30.4v-4.6h-.4v4.6h.5-.1ZM30.3,25.3v-.2l-.3-4.6c-.1.2-.3.3-.5.4l.3,4.2v.2h.5ZM30.2,34.7v-4.1h-.4v4.1h.4ZM30.2,38.6v-3.8h-.5v3.8h.5ZM30.2,42.3v-3.6h-.5v3.6h.5ZM30.1,45.8v-3.4h-.6v3.4h.6ZM30.1,49.1v-3.2h-.6v3.2h.6ZM30.1,52.4v-3.2h-.6v3.2h.6ZM30,55.4v-2.9h-.6v2.9h.6ZM30,58.2v-2.7h-.7v2.7h.7ZM29.2,16.5c.4,0,.8-.4.8-.8s-.4-.8-.8-.8-.8.4-.8.8.3.8.8.8ZM30,60.9v-2.6h-.7v2.6h.7ZM29.9,63.4v-2.4h-.7v2.4h.7ZM29.9,65.7v-2.2h-.7v2.2h.7ZM29.9,68v-2.2h-.8v2.2h.8ZM29.9,70.1v-2h-.8v2h.8ZM29.9,72.1v-2h-.8v2h.8ZM29.8,74v-1.8h-.8v1.8h.8ZM29.8,75.8v-1.8h-.8v1.8h.8ZM29.8,77.6v-1.7h-.8v1.7h.8ZM29.8,79.2v-1.5h-.8v1.5h.8ZM29.8,80.7v-1.3h-.9v1.3h.9ZM29.8,82.1v-1.3h-.9v1.3h.9ZM29.7,83.4v-1.2h-.9v1.2h.9ZM29.7,25.9h-.2v4.6c-.1,0,.2,0,.2,0v-4.5h0ZM29.7,84.5v-1.1h-.9v1.1h.9ZM29.7,85v-.4h-.9v.4h.9ZM29.7,85.6v-.4h-.9v.4h.9ZM29.7,88.3v-2.6h-.9v2.6h.9ZM29.7,89.8v-1.3h-.9v1.3h.9ZM29.7,90.5v-.5h-1v.5h1ZM29.6,98.5v-7.8h-.9v7.8c-.1,0,.9,0,.9,0ZM29.6,34.7v-4.1h-.2v4.1c-.1,0,.2,0,.2,0ZM29.6,99.1v-.4h-1v.4h1ZM29.5,38.6v-3.8h-.2v3.8h.2ZM29.5,103.5v-4.2h-1v4.2h1ZM29.5,104.2v-.5h-1.1v.5h1.1ZM29.5,105.8v-1.4h-1.1v1.4h1.1ZM29.4,42.3v-3.6h-.2v3.6h.2ZM29.5,107.8v-1.8h-1.1v1.8h1.1ZM29.4,111.8v-3.9h-1.1v3.9h1.1ZM29.4,45.8v-3.4h-.3v3.4h.3ZM30,11.2c0-.4-.4-.8-.8-.8s-.8.4-.8.8.3.8.8.8.8-.4.8-.8ZM30,20c0-.4-.4-.8-.8-.8s-.8.3-.8.8.3.8.8.8.8-.4.8-.8ZM29.3,49.1v-3.2h-.3v3.2h.3ZM29.2,52.4v-3.2h-.3v3.2h.3ZM29.2,55.4v-2.9h-.3v2.9h.3ZM29.1,58.2v-2.7h-.4v2.7h.4ZM29.1,60.9v-2.6h-.4v2.6h.4ZM29,63.4v-2.4h-.4v2.4h.4ZM29,65.7v-2.2h-.4v2.2h.4ZM29,68v-2.2h-.4v2.2h.4ZM28.9,70.1v-2h-.4v2h.4ZM28.9,72.1v-2h-.5v2h.5ZM28.9,74v-1.8h-.5v1.8h.5ZM28.8,75.8v-1.8h-.5v1.8h.5ZM28.8,77.6v-1.7h-.4v1.7h.4ZM28.8,79.2v-1.5h-.4v1.5h.4ZM28.7,80.7v-1.3h-.4v1.3h.4ZM28.7,82.1v-1.3h-.4v1.3h.4ZM28.7,83.4v-1.2h-.4v1.2h.4ZM28.7,84.5v-1.1h-.3v1.1h.3ZM28.7,85v-.4h-.3v.4h.3ZM28.6,85.6v-.4h-.3v.4h.3ZM28.6,88.3v-2.6h-.2v2.3c0,0,.1.2.2.2h0ZM28.6,89.8v-1.3c-.2,0-.4-.2-.4-.4v-2.3h-.5c-.2,0-.3,0-.3.3v3.5c0,.2.1.3.3.3h.9ZM28.5,90.5v-.5h-.9c-.3,0-.5-.2-.5-.5v-3.5c0-.3.2-.5.5-.5h.5v-.4h-1.5c-.3,0-.5.2-.5.5v4.4c0,.3.2.5.5.5h1.9ZM28.4,99.1v-.4h-1.9c-.2,0-.4.2-.4.4v4.8c0,.2.1.4.4.4h1.8v-.5h-.6c-.3,0-.5-.2-.5-.5v-3.6c0-.3.2-.5.5-.5h.7ZM28.3,103.5v-4.2h-.6c-.2,0-.3,0-.3.3v3.6c0,.2.2.3.3.3,0,0,.6,0,.6,0ZM28.2,107.8v-1.8h-.5c-.1,0-.2,0-.2.2v1.4c0,0,0,.2.2.2,0,0,.5,0,.5,0ZM27.3,20.3v-.4h-.6v-.7s0-.1-.2-.1h-.8s-.1,0-.2.2v1.7h.9v-.6h0c0-.1.6-.1.6-.1h.3ZM27.3,16v-.4h-.6v-.7s0-.1-.2-.1h-.8s-.2,0-.2.2v1.7h.9s0-.1.1-.2v-.4h0c0-.1.7-.1.7-.1h.1ZM27.1,107.5c.3-.3.4-.7.1-1.1-.1-.2-.4-.3-.6-.3s-.3,0-.5.2c-.3.3-.4.7-.1,1.1s.7.4,1.1.1ZM26.4,11.5h.7v-.4h-.6v-.7s0-.1-.2-.1h-.8s-.2,0-.2.2v1.8h.9v-.6h0l.2-.2ZM27.4,112.9c0-.5-.4-.9-.9-.9s-.9.4-.9.9.4.9.9.9.9-.4.9-.9Z"/>
  <path class="cls-2" d="M45.6,98.6c2.9,3.8,6.9,8.9,6.5,14.6-.7,10.3-8.4,16.5-20.6,16.5s-19.6-7.5-20.3-13.9c-1-8.3,2.8-12.5,5.8-15.8,1.6-1.8,3-3.3,3.1-5.1.2-2.7-.7-5.1-1.5-7.3-.6-1.7-1.2-3.4-1.1-4.8.2-3.4,4-8.1,10.6-8.1v10.3h-1.5c-.4,0-.7.3-.7.7v4.4c0,.4.3.7.7.7h1.9v7.8h-2.1c-.3,0-.6.2-.6.6v4.8c0,.3.2.5.6.5h1.8v1.4h-.5c-.2,0-.4.2-.4.4h0c0,0,0,0,0,0-.2-.2-.5-.3-.7-.3s-.4,0-.6.2c-.4.3-.5.9-.1,1.3.2.2.5.4.7.4s.4,0,.6-.2.1,0,.1-.2h0c0,.3.2.5.4.5h.5v3.9h-.5c-.2,0-.4.2-.4.4h0c-.2-.3-.5-.5-.9-.5-.6,0-1.1.5-1.1,1.1s.5,1.1,1.1,1.1.7-.2.9-.5h0c0,.4.2.5.4.5h7.9c.2,0,.4-.2.4-.4v-.2c.2.3.5.5.9.5.6,0,1.1-.5,1.1-1.1s-.5-1.1-1.1-1.1-.7.2-.9.5h0c0-.3-.2-.5-.4-.5h-.8v-3.9h.8c.2,0,.4-.2.4-.4h0c0,0,0,0,0,0,.2.2.4.3.6.3h0c.2,0,.4,0,.6-.2.4-.3.5-.9,0-1.3-.2-.2-.4-.3-.6-.3s-.5,0-.7.2c0,0,0,0,0,.2h0c0-.4-.2-.5-.4-.5h-.8v-1.4h2.3c.3,0,.5-.2.5-.5v-4.8c0-.3-.2-.6-.5-.6h-2.5v-7.8c0,0,2.3,0,2.3,0,.4,0,.7-.3.7-.7v-4.4c0-.4-.3-.7-.7-.7h-1.4v-4.4c0,.7.4,1.3.8,1.8,1.1,1.3,2.8,2,4.4,1.7,1.9-.3,3.6-1.9,4.5-4.3.3.4,1.3,1.8.9,4.2-.2,1.2-.9,2.6-1.5,4.1-1,2.1-1.9,4.3-1.8,6,0,1,1.3,2.5,2.8,4.5h.1ZM50,109.5c0-1-.8-1.8-1.8-1.8s-1.8.8-1.8,1.8.8,1.8,1.8,1.8,1.8-.8,1.8-1.8ZM49.6,117.1c0-.9-.8-1.7-1.7-1.7s-1.7.7-1.7,1.7.8,1.7,1.7,1.7,1.7-.7,1.7-1.7ZM43.8,120.2c0-1-.8-1.8-1.8-1.8s-1.8.8-1.8,1.8.8,1.8,1.8,1.8,1.8-.8,1.8-1.8ZM42.9,113.4c0-.9-.7-1.6-1.6-1.6s-1.6.7-1.6,1.6.7,1.6,1.6,1.6,1.6-.7,1.6-1.6Z"/>
  <path class="cls-1" d="M48.2,107.8c1,0,1.8.8,1.8,1.8s-.8,1.8-1.8,1.8-1.8-.8-1.8-1.8.8-1.8,1.8-1.8ZM49.8,109.5c0-.9-.7-1.6-1.6-1.6s-1.6.7-1.6,1.6.7,1.6,1.6,1.6,1.6-.7,1.6-1.6Z"/>
  <circle class="cls-4" cx="48.2" cy="109.5" r="1.6"/>
  <path class="cls-1" d="M48,115.4c.9,0,1.7.7,1.7,1.7s-.8,1.7-1.7,1.7-1.7-.7-1.7-1.7.8-1.7,1.7-1.7ZM49.4,117.1c0-.8-.7-1.5-1.5-1.5s-1.5.7-1.5,1.5.7,1.5,1.5,1.5,1.5-.6,1.5-1.5Z"/>
  <path class="cls-4" d="M48,115.6c.8,0,1.5.7,1.5,1.5s-.7,1.5-1.5,1.5-1.5-.6-1.5-1.5.7-1.5,1.5-1.5Z"/>
  <path class="cls-1" d="M42,118.4c1,0,1.8.8,1.8,1.8s-.8,1.8-1.8,1.8-1.8-.8-1.8-1.8.8-1.8,1.8-1.8ZM43.6,120.2c0-.9-.7-1.6-1.6-1.6s-1.6.7-1.6,1.6.7,1.6,1.6,1.6,1.6-.7,1.6-1.6Z"/>
  <path class="cls-4" d="M42,118.6c.9,0,1.6.7,1.6,1.6s-.7,1.6-1.6,1.6-1.6-.7-1.6-1.6.7-1.6,1.6-1.6Z"/>
  <path class="cls-1" d="M41.4,111.8c.9,0,1.6.7,1.6,1.6s-.7,1.6-1.6,1.6-1.6-.7-1.6-1.6.7-1.6,1.6-1.6ZM42.7,113.4c0-.8-.6-1.4-1.4-1.4s-1.4.6-1.4,1.4.6,1.4,1.4,1.4,1.4-.6,1.4-1.4Z"/>
  <path class="cls-4" d="M41.4,112c.8,0,1.4.6,1.4,1.4s-.6,1.4-1.4,1.4-1.4-.6-1.4-1.4.6-1.4,1.4-1.4Z"/>
  <path class="cls-4" d="M37.4,106.4c0,.2.2.4.2.5s0,.4-.3.5c0,0-.3.2-.5.2s-.4,0-.5-.3c-.3-.3-.2-.8,0-1.1,0,0,.3-.2.5-.2s0,0,0,0c.2,0,.4,0,.5.3h0Z"/>
  <path class="cls-4" d="M37.5,99v4.8c0,.2-.2.4-.3.4h-2.4v-.5h1c.3,0,.5-.2.5-.5v-3.6c0-.3-.2-.5-.5-.5h-1.1v-.4h2.4c.2,0,.3.2.3.4h0Z"/>
  <path class="cls-4" d="M37.5,85.7v4.4c0,.3-.2.5-.5.5h-2.4v-.5h1.2c.3,0,.5-.2.5-.5v-3.5c0-.3-.2-.5-.5-.5h-.2v-.4h1.4c.3,0,.5.2.5.5Z"/>
  <circle class="cls-4" cx="37" cy="112.9" r=".9"/>
  <path class="cls-4" d="M36.1,99.6v3.6c0,.2,0,.3-.3.3h-1v-4.2h1c.2,0,.3,0,.3.3Z"/>
  <path class="cls-4" d="M36.1,86v3.5c0,.2,0,.3-.3.3h-1.2v-1.3h.7c0,0,.2,0,.3,0,0,0,0-.2,0-.3v-2.3h0c.2,0,.3,0,.3.3h0Z"/>
  <rect class="cls-2" x="27.6" y="112" width="8.3" height="1.8" rx=".2" ry=".2"/>
  <path class="cls-2" d="M35.8,106.2v1.4c0,0,0,.2-.2.2h-.8v-1.8h.8c0,0,.2,0,.2.2Z"/>
  <path class="cls-4" d="M35.4,85.8v2.5c0,0,0,0-.2,0h-.7v-2.6h.9Z"/>
  <polygon class="cls-5" points="35.4 83.5 35.4 84.5 34.5 84.5 34.5 83.5 35.4 83.5"/>
  <polygon class="cls-2" points="34.7 108 34.8 111.8 33.6 111.8 33.6 108 34.7 108"/>
  <polygon class="cls-2" points="34.7 106 34.7 107.8 33.6 107.8 33.6 106 34.7 106"/>
  <polygon class="cls-2" points="34.7 104.4 34.7 105.8 33.6 105.8 33.6 104.4 34.7 104.4"/>
  <polygon class="cls-4" points="34.7 103.7 34.7 104.2 33.6 104.2 33.6 103.7 34.7 103.7"/>
  <polygon class="cls-4" points="34.6 99.3 34.7 103.5 33.6 103.5 33.5 99.3 34.6 99.3"/>
  <rect class="cls-4" x="33.5" y="98.7" width="1" height=".4"/>
  <polygon class="cls-2" points="34.5 90.7 34.6 98.5 33.5 98.5 33.5 90.7 34.5 90.7"/>
  <polygon class="cls-4" points="34.5 90 34.5 90.5 33.5 90.5 33.5 90 34.5 90"/>
  <polygon class="cls-4" points="34.4 88.5 34.5 89.8 33.5 89.8 33.5 88.5 34.4 88.5"/>
  <polygon class="cls-4" points="34.4 85.8 34.4 88.3 33.5 88.3 33.5 85.8 34.4 85.8"/>
  <polygon class="cls-5" points="34.4 83.5 34.4 84.5 33.4 84.5 33.4 83.5 34.4 83.5"/>
  <polygon class="cls-2" points="33.5 108 33.5 111.8 32.4 111.8 32.3 108 33.5 108"/>
  <polygon class="cls-2" points="33.4 106 33.5 107.8 32.3 107.8 32.3 106 33.4 106"/>
  <polygon class="cls-2" points="33.4 104.4 33.4 105.8 32.3 105.8 32.3 104.4 33.4 104.4"/>
  <polygon class="cls-4" points="33.4 103.7 33.4 104.2 32.3 104.2 32.3 103.7 33.4 103.7"/>
  <polygon class="cls-4" points="33.4 99.3 33.4 103.5 32.3 103.5 32.3 99.3 33.4 99.3"/>
  <polygon class="cls-4" points="33.4 98.7 33.4 99.1 32.3 99.1 32.3 98.7 33.4 98.7"/>
  <polygon class="cls-2" points="33.3 90.7 33.4 98.5 32.3 98.5 32.3 90.7 33.3 90.7"/>
  <rect class="cls-4" x="32.3" y="90" width="1" height=".5"/>
  <polygon class="cls-4" points="33.3 88.5 33.3 89.8 32.3 89.8 32.3 88.5 33.3 88.5"/>
  <polygon class="cls-4" points="33.3 85.8 33.3 88.3 32.3 88.3 32.3 85.8 33.3 85.8"/>
  <polygon class="cls-5" points="33.3 83.5 33.3 84.5 32.3 84.5 32.3 83.5 33.3 83.5"/>
  <polygon class="cls-2" points="32.2 108 32.2 111.8 30.9 111.8 30.9 108 32.2 108"/>
  <polygon class="cls-2" points="32.2 106 32.2 107.8 30.9 107.8 30.9 106 32.2 106"/>
  <polygon class="cls-2" points="32.2 104.4 32.2 105.8 30.9 105.8 30.9 104.4 32.2 104.4"/>
  <polygon class="cls-4" points="32.2 103.7 32.2 104.2 30.9 104.2 30.9 103.7 32.2 103.7"/>
  <polygon class="cls-4" points="32.2 99.3 32.2 103.5 30.9 103.5 30.9 99.3 32.2 99.3"/>
  <polygon class="cls-4" points="32.2 98.7 32.2 99.1 30.9 99.1 30.9 98.7 32.2 98.7"/>
  <polygon class="cls-2" points="32.2 90.7 32.2 98.5 30.9 98.5 31 90.7 32.2 90.7"/>
  <rect class="cls-4" x="31" y="90" width="1.2" height=".5"/>
  <polygon class="cls-4" points="32.2 88.5 32.2 89.8 31 89.8 31 88.5 32.2 88.5"/>
  <polygon class="cls-4" points="32.2 85.8 32.2 88.3 31 88.3 31 85.8 32.2 85.8"/>
  <polygon class="cls-5" points="32.1 83.5 32.2 84.5 31 84.5 31 83.5 32.1 83.5"/>
  <polygon class="cls-5" points="32.1 82.2 32.1 83.4 31 83.4 31 82.2 32.1 82.2"/>
  <polygon class="cls-5" points="30.9 82.2 30.9 83.4 29.9 83.4 29.9 82.2 30.9 82.2"/>
  <polygon class="cls-5" points="30.9 83.5 30.9 84.5 29.9 84.5 29.9 83.5 30.9 83.5"/>
  <polygon class="cls-4" points="30.9 85.8 30.8 88.3 29.8 88.3 29.9 85.8 30.9 85.8"/>
  <polygon class="cls-4" points="30.8 88.5 30.8 89.8 29.8 89.8 29.8 88.5 30.8 88.5"/>
  <rect class="cls-4" x="29.8" y="90" width="1" height=".5"/>
  <polygon class="cls-2" points="30.8 90.7 30.8 98.5 29.7 98.5 29.8 90.7 30.8 90.7"/>
  <rect class="cls-4" x="29.7" y="98.7" width="1.1" height=".4"/>
  <polygon class="cls-4" points="30.8 99.3 30.8 103.5 29.7 103.5 29.7 99.3 30.8 99.3"/>
  <polygon class="cls-4" points="30.8 103.7 30.7 104.2 29.7 104.2 29.7 103.7 30.8 103.7"/>
  <polygon class="cls-2" points="30.7 104.4 30.7 105.8 29.7 105.8 29.7 104.4 30.7 104.4"/>
  <polygon class="cls-2" points="30.7 106 30.7 107.8 29.6 107.8 29.6 106 30.7 106"/>
  <polygon class="cls-2" points="30.7 108 30.7 111.8 29.6 111.8 29.6 108 30.7 108"/>
  <polygon class="cls-5" points="29.8 82.2 29.7 83.4 28.8 83.4 28.9 82.2 29.8 82.2"/>
  <polygon class="cls-5" points="29.7 83.5 29.7 84.5 28.8 84.5 28.8 83.5 29.7 83.5"/>
  <polygon class="cls-4" points="29.7 85.8 29.7 88.3 28.7 88.3 28.8 85.8 29.7 85.8"/>
  <polygon class="cls-4" points="29.7 88.5 29.7 89.8 28.7 89.8 28.7 88.5 29.7 88.5"/>
  <polygon class="cls-4" points="29.7 90 29.7 90.5 28.7 90.5 28.7 90 29.7 90"/>
  <polygon class="cls-2" points="29.7 90.7 29.6 98.5 28.6 98.5 28.7 90.7 29.7 90.7"/>
  <polygon class="cls-4" points="29.6 98.7 29.6 99.1 28.5 99.1 28.5 98.7 29.6 98.7"/>
  <polygon class="cls-4" points="29.6 99.3 29.5 103.5 28.4 103.5 28.5 99.3 29.6 99.3"/>
  <polygon class="cls-4" points="29.5 103.7 29.5 104.2 28.4 104.2 28.4 103.7 29.5 103.7"/>
  <polygon class="cls-2" points="29.5 104.4 29.5 105.8 28.4 105.8 28.4 104.4 29.5 104.4"/>
  <polygon class="cls-2" points="29.5 106 29.5 107.8 28.4 107.8 28.4 106 29.5 106"/>
  <polygon class="cls-2" points="29.5 108 29.4 111.8 28.3 111.8 28.4 108 29.5 108"/>
  <path class="cls-4" d="M28.6,85.8v2.6c-.2,0-.3,0-.3-.2v-2.3h.3Z"/>
  <path class="cls-4" d="M28.6,88.5v1.3h-.9c-.2,0-.3,0-.3-.3v-3.5c0-.2.1-.3.3-.3h.5v2.3c0,.2.2.4.4.4h0Z"/>
  <path class="cls-4" d="M28.6,90v.5h-1.9c-.3,0-.5-.2-.5-.5v-4.4c0-.3.2-.5.5-.5h1.5v.4h-.5c-.3,0-.5.2-.5.5v3.5c0,.3.2.5.5.5h.9Z"/>
  <path class="cls-4" d="M28.4,98.7v.4h-.7c-.3,0-.5.2-.5.5v3.6c0,.3.2.5.5.5h.6v.5h-1.8c-.2,0-.4-.2-.4-.4v-4.8c0-.2.1-.4.4-.4h1.9Z"/>
  <path class="cls-4" d="M28.4,99.3v4.2h-.7c-.2,0-.3,0-.3-.3v-3.6c0-.2.2-.3.3-.3,0,0,.7,0,.7,0Z"/>
  <path class="cls-2" d="M28.3,106v1.8h-.5c-.1,0-.2,0-.2-.2v-1.4c0,0,0-.2.2-.2,0,0,.5,0,.5,0Z"/>
  <path class="cls-4" d="M27.2,106.4c.3.3.2.8-.1,1.1s-.8.2-1.1,0-.2-.8.1-1.1.3-.2.5-.2.4,0,.6.3Z"/>
  <circle class="cls-4" cx="26.5" cy="112.9" r=".9"/>
</svg>