<?xml version="1.0" encoding="UTF-8"?>
<svg id="Layer_2" data-name="Layer 2" xmlns="http://www.w3.org/2000/svg" viewBox="0 0 64.19 132.71">
  <defs>
    <style>
      .cls-1 {
        fill: #fff;
        stroke: #000;
        stroke-miterlimit: 10;
      }
    </style>
  </defs>
  <g id="Instruments">
    <g id="Guitar_Outline" data-name="Guitar Outline">
      <polyline class="cls-1" points="18.37 113.5 .65 120.34 2.23 124.27 22.96 116.06"/>
      <polyline class="cls-1" points="42.34 15.38 47.06 3.42 56.6 .81 47.5 15.85"/>
      <polyline class="cls-1" points="51.11 121.59 36.93 127.41 38.34 132.04 63.61 121.32 62.65 116.92 54.42 120.29"/>
      <polyline class="cls-1" points="46.36 107.74 51.11 121.59 54.42 120.29 45.63 95.76"/>
      <path class="cls-1" d="M31.13,70.92l11.21-55.54,5.16.47-10.34,56.36c.96.63,3.7.93,6.39-.96,2.55-1.79,5.08-5.8,5.68-4.69.51.93.19,4.6-1.24,8.15-1.64,4.07-4.49,8.06-4.87,9.02-2.21,5.7,8.2,17.28,1.92,26.57-6.27,9.29-14.31,7.73-19.58,6.47-5.28-1.25-10.55-3.87-11.52-12.99-.97-9.13,8.23-19.08,9.14-21.9.91-2.82-.65-11.38-.17-15.33.47-3.82,4.29-10.33,5.42-10.64.19-.05-.2,4.76.47,8.73.61,3.63,2.31,6.46,2.34,6.27Z"/>
    </g>
  </g>
</svg>