<?xml version="1.0" encoding="UTF-8"?>
<svg id="Layer_1" xmlns="http://www.w3.org/2000/svg" viewBox="0 0 352.07 539.74">
  <defs>
    <style>
      .cls-1 {
        fill: #231f20;
      }
    </style>
  </defs>
  <path class="cls-1" d="M222.8,106.49c-10.44-32.03,9.42-74.77,44.31-95.44,34.95-20.69,71.73-11.47,82.17,20.54,10.44,32.07-9.4,74.79-44.33,95.46-34.92,20.7-71.7,11.5-82.15-20.56"/>
  <path class="cls-1" d="M13.6,539.74c-1.93,0-3.83-.84-5.42-2.44-2.28-2.3-3.66-5.95-3.66-9.78V154.98c0-6.73,4.06-12.19,9.08-12.19s9.08,5.46,9.08,12.19v356.19l201.9-79.92V67.88c0-6.76,4.05-12.24,9.06-12.24s9.07,5.48,9.07,12.24v372.52c0,5.42-2.63,10.2-6.5,11.71l-220.04,87.13c-.87.33-1.7.51-2.56.51"/>
  <path class="cls-1" d="M2.79,193.63c-10.45-32.07,9.41-74.8,44.3-95.46,34.94-20.7,71.72-11.47,82.16,20.56,10.45,32.05-9.41,74.8-44.31,95.46-34.93,20.65-71.71,11.47-82.15-20.56"/>
  <path class="cls-1" d="M13.6,477.34c-3.99,0-7.62-3.54-8.73-8.96-1.36-6.52,1.48-13.22,6.28-15.07l220.04-82.5c4.84-1.83,9.85,1.96,11.19,8.47,1.34,6.52-1.47,13.25-6.3,15.04L16.04,476.87c-.8.34-1.62.46-2.44.46"/>
</svg>