<?xml version="1.0" encoding="UTF-8"?>
<svg id="Layer_1" xmlns="http://www.w3.org/2000/svg" viewBox="0 0 404.58 665.76">
  <defs>
    <style>
      .cls-1 {
        fill: #231f20;
      }
    </style>
  </defs>
  <path class="cls-1" d="M339.92,405c-13.47,23.6-38.21,38.63-66.26,45.39,4.37-18.36,14.24-97.92,17.31-119.04.88-6.1,1.89-12.17,2.96-18.24,5.76.7,11.48,1.99,17.11,3.93,18.59,6.44,33.61,20.55,38.35,37.85,4.57,16.73-.95,35.14-9.47,50.11ZM255.59,453.56c-22.04,2.49-44.99.25-65.43-6.51-7.08-4.92-13.9-10.1-19.9-16.11-9.28-9.28-14.57-21.02-18.1-32.92-6.82-22.95-1.95-47.19,6.55-69.18,11.58-29.97,34.72-54.64,61.65-75.62,24.15-15.21,48.49-29.86,71.11-46.65-3.43,28.12-12.83,94.19-13.71,99.12-9.85,1.78-19.46,4.82-28.35,8.63-22.21,9.52-39.29,26.66-53.07,44.48-1.05,1.35.75,1.65,1.63.64,13.89-15.98,30.45-31.14,51.22-39.86,8.81-3.69,18.01-6,27.32-6.78-2.34,13.41-18.08,128.59-20.91,140.77ZM333.82,124.88c6.42-20.03,10.08-40.68,17.59-60.43,3.81-10,8.11-19.51,13.3-29,2.7-4.94,5.73-9.69,9.36-14.14.99-1.2,10.76-13.91,13.29-8.9.72,1.41,2.32,1.27,3.75.47.9,1.34,1.6,2.8,2.11,4.13,4.4,11.39,2.19,24.41.16,35.97-7.18,40.54-32.11,78.61-61.21,109.72-3.83,4.09-7.79,8.04-11.84,11.9,3.88-16.7,8.25-33.36,13.5-49.74ZM361.28,338.72c-7.33-15.39-24.24-26.1-41.5-31.38-7.87-2.41-16.02-3.42-24.21-3.37,2.14-11.7,4.38-23.39,6.27-35.15,1.84-11.42,3.29-22.89,4.6-34.36,1.34-4.21,2.61-8.44,3.72-12.72,2.71-10.5,4.4-21.23,6.7-31.8.37-1.69.76-3.38,1.13-5.08,28.79-26.03,52.95-56.09,69.05-89.82,8.77-18.38,14.88-37.5,16.98-57.42,1.04-9.63.96-19.89-3.52-28.9-5.16-10.37-16.36-10.61-26.55-5.3-15.83,8.25-26.55,25.92-34.55,40-21.22,37.42-32.78,79.07-41.21,120.08-2.39,11.58-4.18,23.24-5.72,34.94-18.75,14.47-38.96,27.46-59.76,39.67-35.13,20.63-70.67,41.86-96.18,72.28-23.19,27.69-35.1,65.51-21.49,98.9,19.65,48.26,82.82,65.3,137.42,58.29-.78,3.81-5.64,39.59-9.52,60.48-5.14,27.7-17.97,51.13-29.95,67.45-10.31,14.04-23.19,26.87-38.53,36.65-32.62,20.79-83.27,34.2-118.4,11.11-16.82-11.05-31.55-29.11-38.12-48.39,4.9,6.48,11.58,11.67,21.08,14.99,15.13,5.3,32.29,3.53,47.32-.96,31.03-9.25,55.03-39,36.74-67.12-18.38-28.28-56.89-33.02-86.73-16.51-15.28,8.46-26.14,22.27-30.88,37.61-5.33,17.24-8.99,39.32-.3,54.94,8.23,14.79,21.51,28.02,36.41,37.99,15.78,10.56,41.81,10.49,61.24,9.57,38.56-1.84,76.28-18.72,102.82-43.3,14.63-13.56,26.9-29.11,36.71-45.75,10.65-18.05,24.27-93.66,28.04-111.99,8.01-1.9,15.68-4.33,22.83-7.3,32.85-13.65,57.82-38.28,69-69.01,5.83-16,6.46-33.67-.98-49.31"/>
</svg>