<?xml version="1.0" encoding="UTF-8"?>
<svg id="Layer_1" xmlns="http://www.w3.org/2000/svg" viewBox="0 0 399.05 616.15">
  <defs>
    <style>
      .cls-1 {
        fill: #231f20;
      }
    </style>
  </defs>
  <path class="cls-1" d="M289.55,481.22c-7.44,4.3-16.81,1.98-20.93-5.16L41.2,82.15c-4.11-7.13-1.43-16.39,6.01-20.69,7.48-4.32,16.83-2,20.95,5.13l227.42,393.91c4.13,7.15,1.46,16.4-6.02,20.72"/>
  <path class="cls-1" d="M274.62,418.18c35.07,24.91,31.69,87.09-7.55,138.96-39.26,51.8-99.54,73.62-134.61,48.7-35.03-24.91-31.71-87.11,7.55-138.96,39.27-51.83,99.52-73.63,134.61-48.7"/>
  <path class="cls-1" d="M211.32,69.69c-35.84-7.15-72.83-3.14-108.58-10.87-19.06-4.09-33.88-7.2-50.13-18.09C34.89,28.92,19.46,18.1,6.02,1.26,2.16-3.58-.76,6.87.18,9.62c10.89,32.11,27.96,73.87,60.85,89.57,29.48,14.01,66.45,15.58,98.96,16.32,67.62,1.53,140.74,30.54,163.26,96.62,1.46,4.2,5.03-.41,5.53-2.61,15.32-71.16-54.11-127.14-117.46-139.82"/>
  <path class="cls-1" d="M279.47,187.72c-35.87-7.19-72.85-3.17-108.61-10.92-19.06-4.08-33.88-7.2-50.12-18.08-17.73-11.82-33.15-22.63-46.58-39.46-3.87-4.85-6.8,5.58-5.86,8.34,10.88,32.1,27.96,73.87,60.84,89.56,29.49,14.03,66.45,15.58,98.95,16.31,67.63,1.55,140.74,30.54,163.28,96.65,1.45,4.2,5.02-.41,5.52-2.63,15.32-71.15-54.09-127.11-117.43-139.77"/>
</svg>