<?xml version="1.0" encoding="UTF-8"?>
<svg id="Layer_2" data-name="Layer 2" xmlns="http://www.w3.org/2000/svg" viewBox="0 0 128.22 108.97">
  <defs>
    <style>
      .cls-1 {
        fill: #fff;
        stroke: #000;
        stroke-miterlimit: 10;
      }
    </style>
  </defs>
  <g id="Instruments">
    <g id="Grand_Piano_Outline" data-name="Grand Piano Outline">
      <path class="cls-1" d="M15.25,53.81s6.44,4.01,6.55,5.83.39,45.32.39,45.32l3.5,3.27,2.82-3.72v-44.06c0-1.75-.06-4.2,3.2-4.51"/>
      <polyline class="cls-1" points="35.95 56.05 35.95 96.08 38.66 97.72 41.37 97.01 41.37 55.6"/>
      <polyline class="cls-1" points="78.24 79.93 78.24 71.34 78.24 52.43 72.82 52.84 72.82 73.77 72.82 77.45 72.82 105.03 75.53 107.24 78.24 105.03 78.24 79.93"/>
      <line class="cls-1" x1="48.66" y1="8.88" x2="9.32" y2="23.76"/>
      <polyline class="cls-1" points="78.5 9.14 103.37 1.06 54.63 6.63 51.85 7.68"/>
      <line class="cls-1" x1="93.38" y1="4.31" x2="103.37" y2="27.38"/>
      <path class="cls-1" d="M81.12,27.08c19.7-.94,36.04-1.74,36.04-1.74,3.55-.34,5.64,1.35-1.02,1.35l-22.07,1.2-70.73,3.83-9.47-1.51,67.25-3.14"/>
      <path class="cls-1" d="M13.92,30.21s-.06-.07-.01-.08l35.76-11.62"/>
      <path class="cls-1" d="M.51,29.89c.3.45,0,18.88,0,18.88l22.79,7.79s.04,0,.04-.03v-24.81l-20.91-3.02"/>
      <polygon class="cls-1" points="81.34 28.58 78.29 7.68 48.54 7.68 48.66 8.88 49.67 18.51 50.89 30.23 81.34 28.58"/>
      <line class="cls-1" x1="64.56" y1="7.68" x2="65.91" y2="20.69"/>
      <polygon class="cls-1" points="13.87 30.21 49.67 18.51 48.66 8.88 9.32 23.76 2.43 28.7 13.87 30.21"/>
      <path class="cls-1" d="M23.34,56.57v-24.85l92.8-5.03v10.53c7.07.53,11.32,2.52,11.32,2.52,0,0,.73,6.37-.28,9.25-1.02,2.88-3.95,3.78-3.95,3.78v48.97l-2.47,5.5-4.32-2.68v-21.91l-.3-33.08-92.8,7"/>
      <line class="cls-1" x1="116.14" y1="37.22" x2="54.63" y2="41.27"/>
    </g>
  </g>
</svg>