<?xml version="1.0" encoding="UTF-8"?>
<svg id="Layer_2" data-name="Layer 2" xmlns="http://www.w3.org/2000/svg" viewBox="0 0 210.34 219.31">
  <defs>
    <style>
      .cls-1 {
        fill: #fff;
        stroke: #000;
        stroke-miterlimit: 10;
      }
    </style>
  </defs>
  <g id="Instruments">
    <g id="Keyboard_Outline" data-name="Keyboard Outline">
      <polygon class="cls-1" points="124.91 133.07 128.45 206.43 120.49 205.55 86.02 210.64 101.93 218.81 182.36 215.27 161.15 205.55 155.85 133.07 175.09 112.75 197.96 112.75 209.76 97.72 199.15 73.86 184.27 73.86 169.99 60.6 152.31 85.35 80.46 106.38 80.46 110.88 124.91 133.07"/>
      <line class="cls-1" x1="124.91" y1="133.07" x2="155.85" y2="133.07"/>
      <line class="cls-1" x1="160.82" y1="73.43" x2="79.93" y2="59.52"/>
      <path class="cls-1" d="M67.38,51.29l7.16-3.06,95.1,12.13c.16.02.24.2.15.33l-15.02,21.23-76.8-14.31-33.95,15.32"/>
      <path class="cls-1" d="M80.46,106.74l21.75-6.73s-55.93-17.04-57.7-17.31c-.03,0-.04,0-.07.01l-6.99,3.49s-.07.02-.1,0l-28.18-9.69s-.07,0-.1,0l-8.49,4.25c-.13.06-.12.25.01.3,5.49,2.26,79.85,25.66,79.85,25.66"/>
      <polygon class="cls-1" points="77.96 67.61 81.6 52.65 63.04 50.88 57.66 73.43 62.63 74.53 77.96 67.61"/>
      <line class="cls-1" x1="54.21" y1="61.48" x2="18.97" y2="73.43"/>
      <path class="cls-1" d="M109.68,1.73c-1.28,6.24-8.04,33.27-9.85,40.47-.23.93.42,1.84,1.37,1.92l46.45,3.98c.81.07,1.54-.5,1.66-1.3l7.13-44.51c.15-.94-.58-1.8-1.53-1.8h-43.71c-.74,0-1.37.51-1.52,1.23Z"/>
      <path class="cls-1" d="M151.32,34.31c.37,11.02,1.35,20.22,4.02,24.39l-6.24-.81.02-4.75-3.98-1.27-.02-3.71,4.21.06,1.97-13.76"/>
      <path class="cls-1" d="M108.02,44.71l-.25.74-3.89-.24v3.41h3.82l1.15,4.06,8.7,1.13c-4-2.38-6.37-6.17-6.37-8.82l-3.16-.27Z"/>
      <polyline class="cls-1" points="38.48 97.43 38.48 150.68 26.29 151.28 12.45 157.3 21.93 160.46 77.59 160.46 63 150.08 60.98 104.23"/>
      <polygon class="cls-1" points="80.46 106.74 80.46 110.88 .5 84.71 .5 81.03 80.46 106.74"/>
      <polyline class="cls-1" points="57.66 73.43 61.85 55.87 54.21 61.48 18.35 73.43 44.55 82.72 62.63 74.53 57.66 73.43 18.35 73.43 9.13 76.51 18.35 73.43"/>
      <path class="cls-1" d="M9.57,76.66l27.84,9.57,7.14-3.51-26.19-9.29-8.78,2.93c-.14.05-.14.25,0,.3Z"/>
      <polygon class="cls-1" points="44.55 82.72 77.96 67.61 154.76 81.92 152.31 85.35 102.21 100.01 44.55 82.72"/>
    </g>
  </g>
</svg>